<svg xmlns="http://www.w3.org/2000/svg" width="24" height="24" viewBox="0 0 6.35 6.35" id="scan"><path style="-inkscape-stroke:none" d="M.793 0A.796.796 0 0 0 0 .793v1.324a.265.265 0 0 0 .264.264.265.265 0 0 0 .265-.264V.793A.26.26 0 0 1 .793.529h1.324a.265.265 0 0 0 .264-.265A.265.265 0 0 0 2.117 0zm3.44 0a.265.265 0 0 0-.264.264.265.265 0 0 0 .263.265h1.325a.26.26 0 0 1 .263.264v1.324a.265.265 0 0 0 .266.264.265.265 0 0 0 .264-.264V.793A.796.796 0 0 0 5.557 0zM.262 3.969A.265.265 0 0 0 0 4.232v1.325c0 .435.358.793.793.793h1.324a.265.265 0 0 0 .264-.264.265.265 0 0 0-.264-.266H.793a.26.26 0 0 1-.264-.263V4.232a.265.265 0 0 0-.265-.263zm5.823 0a.265.265 0 0 0-.266.263v1.325a.26.26 0 0 1-.263.263H4.232a.265.265 0 0 0-.263.266.265.265 0 0 0 .263.264h1.325a.796.796 0 0 0 .793-.793V4.232a.265.265 0 0 0-.264-.263zM.264 2.91A.265.265 0 0 0 0 3.176a.265.265 0 0 0 .264.263h5.822a.265.265 0 0 0 .264-.263.265.265 0 0 0-.264-.266z" color="#000"></path><path style="-inkscape-stroke:none" d="M1.588 1.322a.265.265 0 0 0-.266.266v3.174a.265.265 0 0 0 .266.265h3.174a.265.265 0 0 0 .265-.265V1.588a.265.265 0 0 0-.265-.266Zm.264.53h2.646v2.646H1.852Z" color="#000" paint-order="stroke fill markers"></path></svg>